<svg width="300" height="300" viewBox="0 0 300 300" fill="none" xmlns="http://www.w3.org/2000/svg">
<path d="M150 37.5C211.875 37.5 262.5 88.125 262.5 150C262.5 211.875 211.875 262.5 150 262.5C88.125 262.5 37.5 211.875 37.5 150C37.5 88.125 88.125 37.5 150 37.5ZM150 18.75C77.8125 18.75 18.75 77.8125 18.75 150C18.75 222.187 77.8125 281.25 150 281.25C222.187 281.25 281.25 222.187 281.25 150C281.25 77.8125 222.187 18.75 150 18.75Z" fill="black"/>
<path d="M225 140.625H159.375V75H140.625V140.625H75V159.375H140.625V225H159.375V159.375H225V140.625Z" fill="black"/>
</svg>
