<svg width="300" height="300" viewBox="0 0 300 300" fill="none" xmlns="http://www.w3.org/2000/svg">
<g clip-path="url(#clip0_123_52)">
<path fill-rule="evenodd" clip-rule="evenodd" d="M235.375 133.937L228.9 158.087C221.337 186.275 217.562 200.375 209 209.512C202.243 216.727 193.5 221.777 183.875 224.025C182.667 224.308 181.437 224.525 180.187 224.675C168.75 226.087 154.787 222.35 129.387 215.55C101.2 207.987 87.0999 204.212 77.9624 195.65C70.7457 188.89 65.6954 180.142 63.4499 170.512C60.5999 158.312 64.3749 144.225 71.9374 116.037L78.3999 91.8874L81.4499 80.5749C87.1374 59.7499 90.9624 48.2874 98.2999 40.4499C105.058 33.2399 113.801 28.1942 123.425 25.9499C135.625 23.0999 149.725 26.8749 177.925 34.4374C206.1 41.9874 220.2 45.7624 229.337 54.3124C236.556 61.0756 241.607 69.8281 243.85 79.4624C246.7 91.6624 242.925 105.75 235.375 133.937ZM113.137 122.562C113.456 121.373 114.007 120.258 114.757 119.281C115.507 118.305 116.442 117.485 117.509 116.87C118.575 116.255 119.753 115.856 120.974 115.696C122.195 115.536 123.436 115.618 124.625 115.937L185 132.125C186.221 132.414 187.371 132.946 188.382 133.688C189.394 134.43 190.246 135.367 190.889 136.445C191.531 137.522 191.951 138.718 192.123 139.961C192.295 141.203 192.216 142.468 191.891 143.679C191.565 144.891 191 146.025 190.228 147.014C189.457 148.003 188.494 148.827 187.398 149.437C186.302 150.048 185.095 150.432 183.848 150.567C182.6 150.703 181.339 150.586 180.137 150.225L119.762 134.05C117.363 133.405 115.318 131.835 114.075 129.683C112.833 127.532 112.496 124.963 113.137 122.562ZM103.437 158.8C104.082 156.401 105.652 154.355 107.804 153.113C109.956 151.871 112.512 151.533 114.912 152.175L151.137 161.887C152.364 162.17 153.521 162.698 154.539 163.437C155.558 164.177 156.417 165.115 157.065 166.194C157.713 167.272 158.138 168.471 158.313 169.717C158.488 170.964 158.41 172.233 158.085 173.449C157.759 174.665 157.192 175.802 156.417 176.794C155.642 177.786 154.675 178.612 153.574 179.222C152.473 179.832 151.26 180.214 150.008 180.346C148.757 180.477 147.491 180.356 146.287 179.987L110.062 170.287C108.873 169.968 107.758 169.418 106.781 168.668C105.805 167.918 104.985 166.983 104.37 165.916C103.755 164.849 103.356 163.672 103.196 162.451C103.036 161.23 103.118 159.989 103.437 158.8Z" fill="black"/>
<path opacity="0.5" d="M180.187 224.688C177.573 232.688 172.981 239.898 166.837 245.651C157.7 254.213 143.6 257.988 115.412 265.538C87.2249 273.088 73.1249 276.876 60.9374 274.026C51.3075 271.78 42.5597 266.73 35.7999 259.513C27.2374 250.376 23.4499 236.276 15.8999 208.088L9.43736 183.938C1.87486 155.751 -1.90014 141.651 0.937361 129.463C3.18627 119.832 8.24106 111.084 15.4624 104.326C24.5999 95.7633 38.6999 91.9884 66.8874 84.4259C72.204 82.9925 77.0582 81.705 81.4499 80.5634L78.3999 91.8884L71.9374 116.038C64.3749 144.226 60.5999 158.313 63.4374 170.513C65.6863 180.145 70.7411 188.893 77.9624 195.651C87.0999 204.213 101.2 207.988 129.387 215.551C154.787 222.351 168.75 226.101 180.187 224.688Z" fill="black"/>
<path fill-rule="evenodd" clip-rule="evenodd" d="M235.375 133.937L228.9 158.087C221.337 186.275 217.562 200.375 209 209.512C202.243 216.727 193.5 221.777 183.875 224.025C182.667 224.308 181.437 224.525 180.187 224.675C168.75 226.087 154.787 222.35 129.387 215.55C101.2 207.987 87.0999 204.212 77.9624 195.65C70.7457 188.89 65.6954 180.142 63.4499 170.512C60.5999 158.312 64.3749 144.225 71.9374 116.037L78.3999 91.8874L81.4499 80.5749C87.1374 59.7499 90.9624 48.2874 98.2999 40.4499C105.058 33.2399 113.801 28.1942 123.425 25.9499C135.625 23.0999 149.725 26.8749 177.925 34.4374C206.1 41.9874 220.2 45.7624 229.337 54.3124C236.556 61.0756 241.607 69.8281 243.85 79.4624C246.7 91.6624 242.925 105.75 235.375 133.937ZM113.137 122.562C113.456 121.373 114.007 120.258 114.757 119.281C115.507 118.305 116.442 117.485 117.509 116.87C118.575 116.255 119.753 115.856 120.974 115.696C122.195 115.536 123.436 115.618 124.625 115.937L185 132.125C186.221 132.414 187.371 132.946 188.382 133.688C189.394 134.43 190.246 135.367 190.889 136.445C191.531 137.522 191.951 138.718 192.123 139.961C192.295 141.203 192.216 142.468 191.891 143.679C191.565 144.891 191 146.025 190.228 147.014C189.457 148.003 188.494 148.827 187.398 149.437C186.302 150.048 185.095 150.432 183.848 150.567C182.6 150.703 181.339 150.586 180.137 150.225L119.762 134.05C117.363 133.405 115.318 131.835 114.075 129.683C112.833 127.532 112.496 124.963 113.137 122.562ZM103.437 158.8C104.082 156.401 105.652 154.355 107.804 153.113C109.956 151.871 112.512 151.533 114.912 152.175L151.137 161.887C152.364 162.17 153.521 162.698 154.539 163.437C155.558 164.177 156.417 165.115 157.065 166.194C157.713 167.272 158.138 168.471 158.313 169.717C158.488 170.964 158.41 172.233 158.085 173.449C157.759 174.665 157.192 175.802 156.417 176.794C155.642 177.786 154.675 178.612 153.574 179.222C152.473 179.832 151.26 180.214 150.008 180.346C148.757 180.477 147.491 180.356 146.287 179.987L110.062 170.287C108.873 169.968 107.758 169.418 106.781 168.668C105.805 167.918 104.985 166.983 104.37 165.916C103.755 164.849 103.356 163.672 103.196 162.451C103.036 161.23 103.118 159.989 103.437 158.8Z" fill="black"/>
<path opacity="0.5" d="M180.187 224.688C177.573 232.688 172.981 239.898 166.837 245.651C157.7 254.213 143.6 257.988 115.412 265.538C87.2249 273.088 73.1249 276.876 60.9374 274.026C51.3075 271.78 42.5597 266.73 35.7999 259.513C27.2374 250.376 23.4499 236.276 15.8999 208.088L9.43736 183.938C1.87486 155.751 -1.90014 141.651 0.937361 129.463C3.18627 119.832 8.24106 111.084 15.4624 104.326C24.5999 95.7633 38.6999 91.9884 66.8874 84.4259C72.204 82.9925 77.0582 81.705 81.4499 80.5634L78.3999 91.8884L71.9374 116.038C64.3749 144.226 60.5999 158.313 63.4374 170.513C65.6863 180.145 70.7411 188.893 77.9624 195.651C87.0999 204.213 101.2 207.988 129.387 215.551C154.787 222.351 168.75 226.101 180.187 224.688Z" fill="black"/>
</g>
<defs>
<clipPath id="clip0_123_52">
<rect width="300" height="300" fill="white"/>
</clipPath>
</defs>
</svg>
