<svg width="300" height="300" viewBox="0 0 300 300" fill="none" xmlns="http://www.w3.org/2000/svg">
<path d="M250 62.5C253.315 62.5 256.495 63.817 258.839 66.1612C261.183 68.5054 262.5 71.6848 262.5 75C262.5 78.3152 261.183 81.4946 258.839 83.8388C256.495 86.183 253.315 87.5 250 87.5H237.5L237.462 88.3875L225.8 251.775C225.351 258.082 222.529 263.985 217.901 268.295C213.274 272.604 207.186 275 200.863 275H99.125C92.8017 275 86.7133 272.604 82.0861 268.295C77.4588 263.985 74.6365 258.082 74.1875 251.775L62.525 88.4L62.5 87.5H50C46.6848 87.5 43.5054 86.183 41.1612 83.8388C38.817 81.4946 37.5 78.3152 37.5 75C37.5 71.6848 38.817 68.5054 41.1612 66.1612C43.5054 63.817 46.6848 62.5 50 62.5H250ZM212.462 87.5H87.5375L99.1375 250H200.863L212.462 87.5ZM175 25C178.315 25 181.495 26.317 183.839 28.6612C186.183 31.0054 187.5 34.1848 187.5 37.5C187.5 40.8152 186.183 43.9946 183.839 46.3388C181.495 48.683 178.315 50 175 50H125C121.685 50 118.505 48.683 116.161 46.3388C113.817 43.9946 112.5 40.8152 112.5 37.5C112.5 34.1848 113.817 31.0054 116.161 28.6612C118.505 26.317 121.685 25 125 25H175Z" fill="black"/>
</svg>
