<svg width="300" height="276" viewBox="0 0 300 276" fill="none" xmlns="http://www.w3.org/2000/svg">
<path d="M150 275.25L128.25 255.75C103 233 82.125 213.375 65.625 196.875C49.125 180.375 36 165.56 26.25 152.43C16.5 139.3 9.69 127.24 5.82 116.25C1.95 105.26 0.01 94.01 0 82.5C0 59 7.875 39.375 23.625 23.625C39.375 7.875 59 0 82.5 0C95.5 0 107.875 2.75 119.625 8.25C131.375 13.75 141.5 21.5 150 31.5C158.5 21.5 168.625 13.75 180.375 8.25C192.125 2.75 204.5 0 217.5 0C241 0 260.625 7.875 276.375 23.625C292.125 39.375 300 59 300 82.5C300 94 298.065 105.25 294.195 116.25C290.325 127.25 283.51 139.31 273.75 152.43C263.99 165.55 250.865 180.365 234.375 196.875C217.885 213.385 197.01 233.01 171.75 255.75L150 275.25Z" fill="black"/>
</svg>
