<svg width="300" height="300" viewBox="0 0 300 300" fill="none" xmlns="http://www.w3.org/2000/svg">
<path d="M175 150V248.5C175.5 252.25 174.25 256.25 171.375 258.875C170.219 260.034 168.845 260.953 167.333 261.58C165.821 262.208 164.2 262.531 162.563 262.531C160.926 262.531 159.305 262.208 157.792 261.58C156.28 260.953 154.907 260.034 153.75 258.875L128.625 233.75C127.263 232.417 126.227 230.787 125.598 228.987C124.969 227.187 124.764 225.267 125 223.375V150H124.625L52.6252 57.75C50.5953 55.1441 49.6793 51.8407 50.0775 48.5616C50.4757 45.2825 52.1556 42.2943 54.7502 40.25C57.1252 38.5 59.7502 37.5 62.5002 37.5H237.5C240.25 37.5 242.875 38.5 245.25 40.25C247.845 42.2943 249.525 45.2825 249.923 48.5616C250.321 51.8407 249.405 55.1441 247.375 57.75L175.375 150H175Z" fill="black"/>
</svg>
