<svg width="300" height="300" viewBox="0 0 300 300" fill="none" xmlns="http://www.w3.org/2000/svg">
<path d="M150.25 25C104.25 25 67.0002 62.25 67.0002 108.25V134.5C67.0002 143 63.5002 155.75 59.1252 163L43.2502 189.5C33.5002 205.875 40.2502 224.125 58.2502 230.125C118 250 182.625 250 242.375 230.125C259.25 224.5 266.5 204.75 257.375 189.5L241.5 163C237.125 155.75 233.625 142.875 233.625 134.5V108.25C233.5 62.5 196 25 150.25 25Z" fill="black"/>
<path d="M191.625 235.25C191.625 258.125 172.875 276.875 150 276.875C138.625 276.875 128.125 272.125 120.625 264.625C113.125 257.125 108.375 246.625 108.375 235.25" fill="black"/>
<path d="M150.75 80.5C150.75 80.0858 150.414 79.75 150 79.75C149.586 79.75 149.25 80.0858 149.25 80.5H150.75ZM149.25 122.125C149.25 122.539 149.586 122.875 150 122.875C150.414 122.875 150.75 122.539 150.75 122.125H149.25ZM59.1252 163L58.483 162.612L58.4818 162.615L59.1252 163ZM43.2502 189.5L42.6068 189.115L42.6058 189.116L43.2502 189.5ZM58.2502 230.125L58.013 230.837L58.0135 230.837L58.2502 230.125ZM242.375 230.125L242.612 230.837L242.612 230.837L242.375 230.125ZM257.375 189.5L258.019 189.115L258.019 189.115L257.375 189.5ZM241.5 163L242.144 162.615L242.142 162.613L241.5 163ZM233.625 108.25L234.375 108.25L234.375 108.248L233.625 108.25ZM149.25 80.5V122.125H150.75V80.5H149.25ZM150.25 24.25C103.836 24.25 66.2502 61.8358 66.2502 108.25H67.7502C67.7502 62.6642 104.664 25.75 150.25 25.75V24.25ZM66.2502 108.25V134.5H67.7502V108.25H66.2502ZM66.2502 134.5C66.2502 138.662 65.3908 143.904 63.9803 149.019C62.5697 154.135 60.6237 159.065 58.483 162.613L59.7673 163.387C62.0017 159.685 63.9932 154.615 65.4263 149.418C66.8596 144.221 67.7502 138.838 67.7502 134.5H66.2502ZM58.4818 162.615L42.6068 189.115L43.8936 189.885L59.7686 163.385L58.4818 162.615ZM42.6058 189.116C37.626 197.48 36.8359 206.372 39.6404 213.963C42.445 221.555 48.8169 227.771 58.013 230.837L58.4874 229.413C49.6835 226.479 43.6804 220.57 41.0475 213.443C38.4144 206.316 39.1244 197.895 43.8946 189.884L42.6058 189.116ZM58.0135 230.837C117.917 250.763 182.708 250.763 242.612 230.837L242.138 229.413C182.542 249.237 118.083 249.237 58.4869 229.413L58.0135 230.837ZM242.612 230.837C259.945 225.059 267.388 204.774 258.019 189.115L256.732 189.885C265.612 204.726 258.555 223.941 242.138 229.413L242.612 230.837ZM258.019 189.115L242.144 162.615L240.857 163.385L256.732 189.885L258.019 189.115ZM242.142 162.613C240.002 159.066 238.056 154.105 236.645 148.973C235.234 143.841 234.375 138.599 234.375 134.5H232.875C232.875 138.776 233.766 144.159 235.199 149.371C236.632 154.582 238.623 159.684 240.858 163.387L242.142 162.613ZM234.375 134.5V108.25H232.875V134.5H234.375ZM234.375 108.248C234.249 62.0857 196.415 24.25 150.25 24.25V25.75C195.586 25.75 232.751 62.9143 232.875 108.252L234.375 108.248ZM190.875 235.25C190.875 257.711 172.461 276.125 150 276.125V277.625C173.289 277.625 192.375 258.539 192.375 235.25H190.875ZM150 276.125C138.835 276.125 128.523 271.462 121.156 264.095L120.095 265.155C127.728 272.788 138.415 277.625 150 277.625V276.125ZM121.156 264.095C113.788 256.727 109.125 246.415 109.125 235.25H107.625C107.625 246.835 112.462 257.523 120.095 265.155L121.156 264.095Z" fill="white"/>
</svg>
